<svg xmlns="http://www.w3.org/2000/svg" version="1.1" xmlns:xlink="http://www.w3.org/1999/xlink" width="16" height="16" x="0" y="0" viewBox="0 0 20 20" style="enable-background:new 0 0 512 512" xml:space="preserve" class=""><g><path d="M10 0C4.5 0 0 4.5 0 10s4.5 10 10 10 10-4.5 10-10S15.5 0 10 0zm0 18c-4.4 0-8-3.6-8-8s3.6-8 8-8 8 3.6 8 8-3.6 8-8 8z" fill="#ed5d1f" opacity="1" data-original="#000000" class=""></path><path d="M11 9.6V5c0-.6-.4-1-1-1s-1 .4-1 1v5c0 .3.1.5.3.7l2.1 2.1c.6.5 1.2.2 1.4 0 .4-.4.4-1 0-1.4z" fill="#ed5d1f" opacity="1" data-original="#000000" class=""></path></g></svg>