<svg xmlns="http://www.w3.org/2000/svg" version="1.1" xmlns:xlink="http://www.w3.org/1999/xlink" width="64" height="64" x="0" y="0" viewBox="0 0 682.667 682.667" style="enable-background:new 0 0 512 512" xml:space="preserve" class=""><g><defs><clipPath id="a" clipPathUnits="userSpaceOnUse"><path d="M0 512h512V0H0Z" fill="#223339" opacity="1" data-original="#000000" class=""></path></clipPath></defs><g clip-path="url(#a)" transform="matrix(1.33333 0 0 -1.33333 0 682.667)"><path d="M0 0c-20.158 0-36.5 16.342-36.5 36.5V98h73V36.5C36.5 16.342 20.158 0 0 0" style="fill-opacity:1;fill-rule:nonzero;stroke:none" transform="translate(334 32.75)" fill="#f6ca56" data-original="#edaf54" class="" opacity="1"></path><path d="M0 0v-61.5C0-81.66-16.34-98-36.5-98c-5.35 0-10.42 1.15-15 3.21C-38.82-89.06-30-76.31-30-61.5V0Z" style="fill-opacity:1;fill-rule:nonzero;stroke:none" transform="translate(370.5 130.75)" fill="#e3910d" data-original="#db8733" class="" opacity="1"></path><path d="M0 0h-91c-5.523 0-10 4.477-10 10v30H10V10C10 4.477 5.523 0 0 0" style="fill-opacity:1;fill-rule:nonzero;stroke:none" transform="translate(379.5 120.75)" fill="#7d929b" data-original="#cccccc" class="" opacity="1"></path><path d="M0 0v-30c0-5.52-4.48-10-10-10h-30c5.52 0 10 4.48 10 10V0Z" style="fill-opacity:1;fill-rule:nonzero;stroke:none" transform="translate(389.5 160.75)" fill="#58676e" data-original="#a0a0a0" class="" opacity="1"></path><path d="M0 0h-256c-8.284 0-15 6.716-15 15 0 8.284 6.716 15 15 15H0Z" style="fill-opacity:1;fill-rule:nonzero;stroke:none" transform="translate(278.5 150.75)" fill="#7d929b" data-original="#cccccc" class="" opacity="1"></path><path d="M0 0v-141h-187c-5.52 0-10 4.48-10 10v121c0 2.7 1.07 5.15 2.82 6.95A9.94 9.94 0 0 0-187 0z" style="fill-opacity:1;fill-rule:nonzero;stroke:none" transform="translate(272.5 321.75)" fill="#ffe094" data-original="#ffd47d" class="" opacity="1"></path><path d="M0 0h222c11.046 0 20 8.954 20 20v200c0 27.062-21.938 49-49 49H-48.5L0 176Z" style="fill-opacity:1;fill-rule:nonzero;stroke:none" transform="translate(262.5 150.75)" fill="#ff8254" data-original="#ff8c64" class="" opacity="1"></path><path d="M0 0v-19.13l-65.64-53.43c-5.09-4.14-11.22-6.22-17.36-6.22-5.99 0-11.98 1.98-17.01 5.93l-28.78 22.65-53.79-39.17a7.494 7.494 0 0 0-4.41-1.44h-.01v16.78l45.97 33.47L-187-4.39v9.54c0 2.7 1.07 5.15 2.82 6.95.64-.26 1.25-.61 1.82-1.06l91.63-72.1c4.62-3.64 11.05-3.59 15.62.13z" style="fill-opacity:1;fill-rule:nonzero;stroke:none" transform="translate(262.5 306.6)" fill="#f6ca56" data-original="#edaf54" class="" opacity="1"></path><path d="M0 0c27.062 0 49-21.938 49-49v-49h-98v49C-49-21.938-27.062 0 0 0" style="fill-opacity:1;fill-rule:nonzero;stroke:none" transform="translate(213.5 419.75)" fill="#c7543a" data-original="#a0513f" class="" opacity="1"></path><path d="M0 0v16.5C0 24.508-6.492 31-14.5 31H-60a5 5 0 0 1-5-5V15.5C-65 6.975-58.025 0-49.5 0Z" style="fill-opacity:1;fill-rule:nonzero;stroke:none" transform="translate(355 448.25)" fill="#7d929b" data-original="#3c4042" class="" opacity="1"></path><path d="M0 0h-56a7.499 7.499 0 0 0-7.5 7.5c0 4.143 3.357 7.5 7.5 7.5H0c4.143 0 7.5-3.357 7.5-7.5S4.143 0 0 0" style="fill-opacity:1;fill-rule:nonzero;stroke:none" transform="translate(464.5 173.25)" fill="#c7543a" data-original="#a0513f" class="" opacity="1"></path><path d="M0 0h-26a7.499 7.499 0 0 0-7.5 7.5c0 4.143 3.357 7.5 7.5 7.5H0c4.143 0 7.5-3.357 7.5-7.5S4.143 0 0 0" style="fill-opacity:1;fill-rule:nonzero;stroke:none" transform="translate(464.5 203.25)" fill="#c7543a" data-original="#a0513f" class="" opacity="1"></path><path d="M0 0c0-11.598-9.402-21-21-21s-21 9.402-21 21 9.402 21 21 21S0 11.598 0 0" style="fill-opacity:1;fill-rule:nonzero;stroke:none" transform="translate(355 309)" fill="#ffffff" data-original="#ffffff" class=""></path><path d="M0 0v-200c0-11.05-8.95-20-20-20h-30c11.05 0 20 8.95 20 20V0c0 27.06-21.94 49-49 49h30C-21.94 49 0 27.06 0 0" style="fill-opacity:1;fill-rule:nonzero;stroke:none" transform="translate(504.5 370.75)" fill="#f15921" data-original="#ed5743" class="" opacity="1"></path><path d="M0 0c-5.523 0-10 4.477-10 10v121c0 5.523 4.477 10 10 10h177" style="stroke-width:15;stroke-linecap:round;stroke-linejoin:round;stroke-miterlimit:10;stroke-dasharray:none;stroke-opacity:1" transform="translate(85.5 180.5)" fill="none" stroke="#223339" stroke-width="15" stroke-linecap="round" stroke-linejoin="round" stroke-miterlimit="10" stroke-dasharray="none" stroke-opacity="" data-original="#000000" class="" opacity="1"></path><path d="M0 0v-141" style="stroke-width:15;stroke-linecap:round;stroke-linejoin:round;stroke-miterlimit:10;stroke-dasharray:none;stroke-opacity:1" transform="translate(262.5 321.5)" fill="none" stroke="#223339" stroke-width="15" stroke-linecap="round" stroke-linejoin="round" stroke-miterlimit="10" stroke-dasharray="none" stroke-opacity="" data-original="#000000" class="" opacity="1"></path><path d="M0 0h-165.25c-8.284 0-15 6.716-15 15v0c0 8.284 6.716 15 15 15h240" style="stroke-width:15;stroke-linecap:round;stroke-linejoin:round;stroke-miterlimit:10;stroke-dasharray:none;stroke-opacity:1" transform="translate(187.75 150.5)" fill="none" stroke="#223339" stroke-width="15" stroke-linecap="round" stroke-linejoin="round" stroke-miterlimit="10" stroke-dasharray="none" stroke-opacity="" data-original="#000000" class="" opacity="1"></path><path d="M0 0v-30h-39.75" style="stroke-width:15;stroke-linecap:round;stroke-linejoin:round;stroke-miterlimit:10;stroke-dasharray:none;stroke-opacity:1" transform="translate(262.5 180.5)" fill="none" stroke="#223339" stroke-width="15" stroke-linecap="round" stroke-linejoin="round" stroke-miterlimit="10" stroke-dasharray="none" stroke-opacity="" data-original="#000000" class="" opacity="1"></path><path d="M0 0v49c0 27.062 21.938 49 49 49v0c27.062 0 49-21.938 49-49V0" style="stroke-width:15;stroke-linecap:round;stroke-linejoin:round;stroke-miterlimit:10;stroke-dasharray:none;stroke-opacity:1" transform="translate(164.5 321.5)" fill="none" stroke="#223339" stroke-width="15" stroke-linecap="round" stroke-linejoin="round" stroke-miterlimit="10" stroke-dasharray="none" stroke-opacity="" data-original="#000000" class="" opacity="1"></path><path d="M0 0h222.5c11.046 0 20 8.954 20 20v200c0 27.062-21.938 49-49 49H-48" style="stroke-width:15;stroke-linecap:round;stroke-linejoin:round;stroke-miterlimit:10;stroke-dasharray:none;stroke-opacity:1" transform="translate(262 150.5)" fill="none" stroke="#223339" stroke-width="15" stroke-linecap="round" stroke-linejoin="round" stroke-miterlimit="10" stroke-dasharray="none" stroke-opacity="" data-original="#000000" class="" opacity="1"></path><path d="M0 0h-91c-5.523 0-10 4.477-10 10v20H10V10C10 4.477 5.523 0 0 0Z" style="stroke-width:15;stroke-linecap:round;stroke-linejoin:round;stroke-miterlimit:10;stroke-dasharray:none;stroke-opacity:1" transform="translate(379.5 120.5)" fill="none" stroke="#223339" stroke-width="15" stroke-linecap="round" stroke-linejoin="round" stroke-miterlimit="10" stroke-dasharray="none" stroke-opacity="" data-original="#000000" class="" opacity="1"></path><path d="M0 0v-51.5C0-71.658-16.342-88-36.5-88v0C-56.658-88-73-71.658-73-51.5V-35" style="stroke-width:15;stroke-linecap:round;stroke-linejoin:round;stroke-miterlimit:10;stroke-dasharray:none;stroke-opacity:1" transform="translate(370.5 120.5)" fill="none" stroke="#223339" stroke-width="15" stroke-linecap="round" stroke-linejoin="round" stroke-miterlimit="10" stroke-dasharray="none" stroke-opacity="" data-original="#000000" class="" opacity="1"></path><path d="M0 0c0-11.874-9.626-21.5-21.5-21.5S-43-11.874-43 0s9.626 21.5 21.5 21.5S0 11.874 0 0ZM0 0v150.667" style="stroke-width:15;stroke-linecap:round;stroke-linejoin:round;stroke-miterlimit:10;stroke-dasharray:none;stroke-opacity:1" transform="translate(355.5 309)" fill="none" stroke="#223339" stroke-width="15" stroke-linecap="round" stroke-linejoin="round" stroke-miterlimit="10" stroke-dasharray="none" stroke-opacity="" data-original="#000000" class="" opacity="1"></path><path d="M0 0h50v15c0 8.284-6.716 15-15 15h-45a5 5 0 0 1-5-5V15C-15 6.716-8.284 0 0 0Z" style="stroke-width:15;stroke-linecap:round;stroke-linejoin:round;stroke-miterlimit:10;stroke-dasharray:none;stroke-opacity:1" transform="translate(305.5 449.5)" fill="none" stroke="#223339" stroke-width="15" stroke-linecap="round" stroke-linejoin="round" stroke-miterlimit="10" stroke-dasharray="none" stroke-opacity="" data-original="#000000" class="" opacity="1"></path><path d="m0 0-69.7-56.742a19.999 19.999 0 0 0-24.994-.207l-91.628 72.101" style="stroke-width:15;stroke-linecap:round;stroke-linejoin:round;stroke-miterlimit:10;stroke-dasharray:none;stroke-opacity:1" transform="translate(261.822 296.348)" fill="none" stroke="#223339" stroke-width="15" stroke-linecap="round" stroke-linejoin="round" stroke-miterlimit="10" stroke-dasharray="none" stroke-opacity="" data-original="#000000" class="" opacity="1"></path><path d="m0 0-57.167-41.627" style="stroke-width:15;stroke-linecap:round;stroke-linejoin:round;stroke-miterlimit:10;stroke-dasharray:none;stroke-opacity:1" transform="translate(132.667 264.667)" fill="none" stroke="#223339" stroke-width="15" stroke-linecap="round" stroke-linejoin="round" stroke-miterlimit="10" stroke-dasharray="none" stroke-opacity="" data-original="#000000" class="" opacity="1"></path><path d="M0 0h-56" style="stroke-width:15;stroke-linecap:round;stroke-linejoin:round;stroke-miterlimit:10;stroke-dasharray:none;stroke-opacity:1" transform="translate(464.5 180.5)" fill="none" stroke="#223339" stroke-width="15" stroke-linecap="round" stroke-linejoin="round" stroke-miterlimit="10" stroke-dasharray="none" stroke-opacity="" data-original="#000000" class="" opacity="1"></path><path d="M0 0h-26" style="stroke-width:15;stroke-linecap:round;stroke-linejoin:round;stroke-miterlimit:10;stroke-dasharray:none;stroke-opacity:1" transform="translate(464.5 210.5)" fill="none" stroke="#223339" stroke-width="15" stroke-linecap="round" stroke-linejoin="round" stroke-miterlimit="10" stroke-dasharray="none" stroke-opacity="" data-original="#000000" class="" opacity="1"></path></g></g></svg>