<svg xmlns="http://www.w3.org/2000/svg" version="1.1" xmlns:xlink="http://www.w3.org/1999/xlink" width="16" height="16" x="0" y="0" viewBox="0 0 24 24" style="enable-background:new 0 0 512 512" xml:space="preserve" class=""><g><path d="M19 1H5a4 4 0 0 0-4 4v7a1 1 0 0 0 1 1h5v9a1 1 0 0 0 .58.91 1 1 0 0 0 1.07-.15l2.85-2.44 2.85 2.44a1 1 0 0 0 1.3 0l2.85-2.44 2.85 2.44A1 1 0 0 0 22 23a1.06 1.06 0 0 0 .42-.09A1 1 0 0 0 23 22V5a4 4 0 0 0-4-4zM3 11V5a2 2 0 0 1 4 0v6zm18 8.83-1.85-1.59a1 1 0 0 0-1.3 0L15 20.68l-2.85-2.44a1 1 0 0 0-1.3 0L9 19.83V5a4 4 0 0 0-.54-2H19a2 2 0 0 1 2 2zM19 6a1 1 0 0 1-1 1h-6a1 1 0 0 1 0-2h6a1 1 0 0 1 1 1zm0 4a1 1 0 0 1-1 1h-6a1 1 0 0 1 0-2h6a1 1 0 0 1 1 1zm0 4a1 1 0 0 1-1 1h-6a1 1 0 0 1 0-2h6a1 1 0 0 1 1 1z" fill="#ed5d1f" opacity="1" data-original="#000000" class=""></path></g></svg>