<?xml version="1.0" encoding="utf-8"?>
<!-- Generator: Adobe Illustrator 26.2.1, SVG Export Plug-In . SVG Version: 6.00 Build 0)  -->
<svg version="1.1" id="Capa_1" xmlns="http://www.w3.org/2000/svg" xmlns:xlink="http://www.w3.org/1999/xlink" x="0px" y="0px"
	 viewBox="0 0 841.89 595.28" style="enable-background:new 0 0 841.89 595.28;" xml:space="preserve">
<style type="text/css">
	.st0{fill:#2B2B2B;}
	.st1{font-family:'Montserrat-LightItalic';}
	.st2{font-size:42.9914px;}
	.st3{fill:#7A7A7A;}
</style>
<text transform="matrix(1 0 0 1 334.0996 382.6514)" class="st0 st1 st2">Soporte Técnico</text>
<g>
	<path class="st3" d="M715.24,340.21c-0.11-8.46,1.16-15.34,11.34-13.98c2.89,0.39,5.74,1.21,8.61,1.71
		c5.24,0.91,9.14,1.21,11.26-3.58c2.36-5.33,4.57-11.04,6.48-16.55c2.03-5.86,1.65-7.8-4.01-10.49c-2.99-1.42-5.8-2.64-10.49-5.71
		c-1.51-0.99-2.47-4.07-2.47-6.91c0-4.64,3.51-7.42,7.01-9.43c12.67-7.26,12.47-10.28,6.64-23.24c-7.36-16.36-6.11-14.88-23.2-10.24
		c-8.16,2.22-14.73-2.05-12.11-12.51c4.8-19.2,5.12-16.89-11.1-23.51c-14.81-6.05-15.22-4.5-23.79,9.21
		c-0.17,0.28-0.36,0.54-0.53,0.82c-3.99,6.26-10.76,6.97-14.82,0.89c-1.71-2.56-3.39-6.88-5.24-9.35
		c-3.39-4.51-7.67-5.94-12.85-3.96c-5.45,2.09-10.34,4.04-15.6,6.57c-5.34,2.57-7.11,6.92-5.82,12.9c0.76,3.48,2.14,7.04,2.72,10.56
		c0.68,4.13-2.16,8.79-6.28,8.1c-4.16-0.7-6.97-1.25-11.54-2.05c-6.8-0.28-9.33,1.19-12,5.49c-1.62,2.61-2.67,5.87-3.91,8.68
		c-0.83,1.89-1.53,3.57-2.1,5.1h8.81c0.24-0.56,0.49-1.16,0.76-1.81c3.64-8.73,3.55-9.96,13.92-7.71
		c7.85,1.71,10.43,2.19,15.45-2.82c5.68-5.67,7.23-10.27,5.18-18.15c-0.41-1.58-0.58-2.77-1.28-5.18c-1.08-3.69,0.02-4.84,3.44-6.4
		c4.25-1.94,9-4.91,12.51-3.93c3.26,0.92,5.66,6.31,7.65,10.18c2.07,4.03,5.19,5.76,12.59,5.85c11.29,0.13,12.28-3.98,16.8-10.95
		c1.03-1.59,2.25-3.71,3.51-5.78c0.77-1.27,2.3-1.65,3.72-1.22c4.06,1.24,8.41,2.84,11.91,4.13c3.58,1.32,3.01,4.55,2.33,7.57
		c-0.78,3.48-1.86,6.68-2.79,10.12c-0.94,3.51-1.08,5.69,5.12,11.54c7.85,7.42,9.25,7.08,13.99,5.71
		c14.24-4.09,13.2-5.14,18.76,6.74c1.8,3.84,1.96,6.51-2.85,9.91c-12.34,8.73-13.86,8.71-11.94,23.59
		c0.88,6.84,9.34,10.93,14.49,13.02c3.45,1.41,1.4,5.33-1.26,11.85c-3.41,8.36-11.67,4.48-16.03,3.48
		c-4.64-1.06-8.01,0.41-11.68,3.81c-5.8,5.37-6.4,8.87-6.28,17.97L715.24,340.21z"/>
	<path class="st3" d="M672.49,243.27c-14.01-0.66-23.94,3.87-32.51,15.58h9.52c6.19-5.4,14.26-8.67,23.03-8.6
		c18.98,0.17,34.26,15.85,34.3,35.2c0.02,11.47-5.7,21.71-14.42,28v11.79c14.52-7.46,22.58-22.96,22.52-40.75
		C714.84,260.37,696.72,243.19,672.49,243.27z"/>
</g>
<g>
	<path class="st0" d="M217.08,340.88c-1.21,4.63-3.65,11.95-14.79,23.02c-1.71,1.67-3.65,3.11-5.82,4.31
		c-3.27,1.8-6.65,2.36-10.27,1.51c-1.52-0.35-14.31-4.16-16.28-4.64c-3.81-0.95-5.83-2.03-10.18,0.42
		c-7.61,4.9-10.32,6.94-20.18,14.05c-3.18,2.15-5.89,3.98-8.9,5.88c-0.52,0.33-1.58,0.46-2.04,0.16c-3.86-2.61-7.62-4.4-11.77-7.34
		c9.07-3.07,21.33-12.08,28.8-18.24c10.12-8.35,18.47-16.46,28.24-27.61c6.49-7.06,14.7-10.28,23.78-12.4
		c11.35-2.66,19.86-3,19.86-3S219.59,331.32,217.08,340.88z"/>
	<path class="st0" d="M215.83,308.2c-4.02,0.44-8.85,1.13-12.74,1.69c-9.98,1.44-19.76,3.77-28.11,9.67
		c-4.2,2.97-7.78,6.85-11.43,10.52c-13.34,13.43-26.47,25.67-42.65,35.71c-5.71,3.54-10.86,5.67-10.86,5.67s-9.81-6.59-16.17-19.27
		c-4.98-9.93-8.28-20.07-6.08-32.16c2.92,0.54,7.52,1.38,10.15,1.89c24.14,4.63,46.27-2.37,64.67-18.29
		c4.33-3.75,8.97-7.15,13.07-11.16c10.59-10.35,22.29-14.26,22.29-14.26s3.66,3.17,12.7,18.28
		C212.92,300.79,214.61,304.55,215.83,308.2z"/>
	<path class="st0" d="M192.67,272.49c-2.13,0.96-4.05,1.82-5.96,2.7c-9.36,4.3-16.92,11.09-24.49,17.86
		c-8.49,7.59-17.7,13.98-28.61,17.63c-14.32,4.79-24.48,4.32-44.42-0.11c-0.01,0,1.09-8.65,5.83-18.59
		c10.74-23.19,38.38-35.1,66.58-31.32c0,0,16.31,0.25,31.07,11.81C192.68,272.48,192.68,272.49,192.67,272.49z"/>
</g>
<g>
	<g>
		<polygon class="st0" points="261.74,303.39 289.72,273.6 275.83,273.62 253.5,296.84 253.52,312.36 253.55,312.33 277.04,340.22 
			291.5,340.21 		"/>
		
			<rect x="236.43" y="273.65" transform="matrix(1 -1.021902e-03 1.021902e-03 1 -0.3136 0.2481)" class="st0" width="12.37" height="66.6"/>
		<path class="st0" d="M337.3,318.35c0.33-0.13,0.65-0.26,0.97-0.4c4.22-1.88,7.47-4.57,9.75-8.1c2.28-3.52,3.42-7.72,3.41-12.61
			c-0.01-4.89-1.15-9.1-3.44-12.65c-2.29-3.55-5.54-6.27-9.76-8.17c-4.22-1.9-9.28-2.84-15.18-2.84l-27.4,0.03l0.07,66.6l12.37-0.01
			l-0.06-56.14l14.46-0.01c5.45-0.01,9.56,1.13,12.32,3.41c2.76,2.28,4.14,5.55,4.15,9.8c0,4.19-1.37,7.45-4.13,9.8
			c-2.76,2.35-6.86,3.53-12.32,3.53l-9.75,0.01l0.01,10.18l10.32-0.01c0.89,0,1.75-0.02,2.6-0.07l13.59,19.46l13.32-0.01
			L337.3,318.35z"/>
		<path class="st0" d="M528.52,318.15c0.33-0.13,0.65-0.26,0.97-0.4c4.22-1.88,7.47-4.57,9.75-8.1c2.28-3.52,3.42-7.72,3.41-12.61
			c0-4.89-1.15-9.1-3.44-12.65c-2.29-3.55-5.54-6.27-9.76-8.17c-4.22-1.9-9.28-2.84-15.18-2.84l-27.4,0.03l0.07,66.6l12.37-0.01
			l-0.06-56.14l14.46-0.01c5.45-0.01,9.56,1.13,12.32,3.41c2.76,2.28,4.14,5.55,4.15,9.8c0,4.19-1.37,7.45-4.13,9.8
			c-2.76,2.35-6.86,3.53-12.32,3.53l-10.93,0.01l0.01,10.18l11.5-0.01c0.89,0,1.75-0.02,2.6-0.07l13.59,19.46l13.32-0.01
			L528.52,318.15z"/>
		<polygon class="st0" points="407.53,329.72 407.54,340.09 357.59,340.14 357.52,273.54 406.14,273.49 406.15,283.86 369.9,283.9 
			369.92,301.21 402.08,301.18 402.09,311.36 369.93,311.39 369.95,329.76 		"/>
		<path class="st0" d="M436.35,324.65l28.21-0.03l6.64,15.41l12.94-0.01L454,273.44l-12.18,0.01l-29.91,66.63l12.75-0.01l6.58-15.42
			l4.14-9.71l12.44-29.16l12.55,29.13l-19.88,0.02L436.35,324.65z"/>
		<path class="st0" d="M618.32,319.89c0,3.74-0.94,7.2-2.84,10.38c-1.9,3.17-4.8,5.73-8.7,7.67c-3.9,1.94-8.83,2.91-14.79,2.92
			c-4.69,0-9.28-0.67-13.75-2.03c-4.47-1.36-8.23-3.24-11.28-5.65l5.32-9.62c2.41,1.97,5.33,3.55,8.76,4.75
			c3.43,1.2,7.01,1.8,10.76,1.8c4.44,0,7.89-0.91,10.37-2.72c2.47-1.81,3.71-4.27,3.7-7.38c0-3.04-1.15-5.46-3.43-7.23
			c-2.29-1.77-5.97-2.66-11.04-2.65l-6.09,0.01l-0.01-8.47l15.09-18l-30.24,0.03l-0.01-10.37l45.39-0.05l0.01,8.28l-16.09,19.19
			c5.41,0.67,9.65,2.38,12.74,5.12C616.27,309.51,618.32,314.18,618.32,319.89z"/>
		<path class="st0" d="M675.71,289.01c-3.05-4.94-7.3-8.81-12.76-11.6c-5.46-2.79-11.8-4.17-19.03-4.17l-21.16,0.02l0.01,10.5l4.3,0
			l16.29-0.05c5.01-0.01,9.34,0.94,12.99,2.84c3.65,1.9,6.47,4.55,8.48,7.94c2,3.39,3,7.4,3.01,12.03c0,4.57-0.99,8.56-2.99,11.99
			c-1.99,3.43-4.82,6.09-8.46,8c-3.65,1.91-7.97,2.86-12.98,2.87l-20.59,0.02l0.01,10.47l21.16-0.02
			c7.23-0.01,13.57-1.41,19.03-4.21c5.45-2.8,9.7-6.69,12.74-11.67c3.04-4.98,4.56-10.8,4.55-17.46
			C680.29,299.79,678.76,293.95,675.71,289.01z"/>
	</g>
</g>
</svg>
