<?xml version="1.0" encoding="UTF-8"?>
<svg id="Layer_2" data-name="Layer 2" xmlns="http://www.w3.org/2000/svg" viewBox="0 0 446.17 126.23">
  <defs>
    <style>
      .cls-1 {
        fill: #000;
        stroke-width: 0px;
      }
    </style>
  </defs>
  <g id="Capa_1" data-name="Capa 1">
    <g>
      <g>
        <path class="cls-1" d="M129.62,64.81c0,15.65-5.55,30.02-14.8,41.23,0,0-.01.02-.02.03-1.48,1.31-3.13,2.47-4.93,3.46-3.33,1.83-6.78,2.4-10.48,1.54-1.54-.36-14.6-4.25-16.6-4.73-3.89-.97-5.95-2.07-10.39.43-7.76,5-10.53,7.08-20.59,14.33-2.76,1.87-5.18,3.5-7.72,5.13l-14.3-6.88c9.12-3.46,20.92-12.17,28.24-18.2,10.32-8.52,18.84-16.79,28.82-28.17,6.62-7.21,14.99-10.49,24.26-12.66,8.12-1.9,14.82-2.65,18.09-2.92.28,2.43.42,4.9.42,7.41Z"/>
        <path class="cls-1" d="M127.56,48.54c-3.62.43-7.61,1-10.93,1.48-10.19,1.47-20.17,3.85-28.68,9.87-4.28,3.03-7.94,6.99-11.66,10.74-13.61,13.71-27.01,26.2-43.52,36.44-5.82,3.61-11.08,5.79-11.08,5.79,0,0-.74-.5-1.96-1.49-.01,0-.03-.03-.04-.04C7.55,99.55,0,83.06,0,64.81c0-1.42.05-2.82.14-4.22,2.93.53,6.85,1.26,9.22,1.71,24.63,4.73,47.21-2.42,65.99-18.66,4.42-3.82,9.15-7.29,13.33-11.38,8.51-8.31,17.71-12.55,21.25-13.98,8.41,8.16,14.61,18.57,17.63,30.26Z"/>
        <path class="cls-1" d="M103.65,12.92c-1.29.58-2.51,1.13-3.74,1.7-9.55,4.38-17.26,11.32-24.99,18.22-8.66,7.75-18.06,14.27-29.19,17.99-14.35,4.79-24.61,4.43-44.24.13C7.83,21.82,33.77,0,64.81,0c14.57,0,28.02,4.8,38.84,12.92Z"/>
      </g>
      <g>
        <g>
          <path class="cls-1" d="M148.91,93.86v-10.34s1.41,0,1.41,0v9.05s5.38,0,5.38,0v1.29s-6.79,0-6.79,0Z"/>
          <path class="cls-1" d="M158.38,82.67l1.92-1.92h1.73s-2.38,1.92-2.38,1.92h-1.27ZM158.75,93.85v-10.34s1.41,0,1.41,0v10.34s-1.41,0-1.41,0Z"/>
          <path class="cls-1" d="M164.56,93.84v-10.34s4.17,0,4.17,0c1.06,0,1.99.21,2.8.65.81.43,1.44,1.04,1.89,1.81.45.78.67,1.68.68,2.7,0,1.02-.22,1.93-.67,2.7-.45.78-1.08,1.38-1.88,1.82-.81.43-1.74.65-2.8.65h-4.18ZM165.97,92.56h2.68c.82,0,1.53-.17,2.13-.49.6-.33,1.06-.78,1.39-1.37.33-.59.5-1.26.49-2.03,0-.78-.17-1.46-.5-2.04-.33-.58-.8-1.03-1.4-1.36-.6-.32-1.31-.49-2.13-.49h-2.68s0,7.77,0,7.77Z"/>
          <path class="cls-1" d="M179.09,92.54h5.78s0,1.28,0,1.28h-7.2s0-10.33,0-10.33h7s0,1.28,0,1.28h-5.58s0,7.77,0,7.77ZM178.96,87.95h5.1s0,1.25,0,1.25h-5.1s0-1.25,0-1.25Z"/>
          <path class="cls-1" d="M188.58,93.82v-10.34s3.86,0,3.86,0c.87,0,1.61.14,2.22.43.61.29,1.09.7,1.42,1.24.33.54.5,1.19.5,1.93,0,.75-.16,1.39-.49,1.93-.33.54-.8.95-1.42,1.23-.61.29-1.35.43-2.22.43h-3.09s.64-.68.64-.68v3.83s-1.41,0-1.41,0ZM190,90.14l-.64-.72h3.05c.91,0,1.59-.21,2.06-.62.47-.41.7-.98.7-1.72,0-.74-.23-1.31-.7-1.71-.47-.4-1.16-.6-2.06-.6h-3.05s.64-.74.64-.74v6.11ZM195.21,93.81l-2.53-3.75h1.52s2.55,3.75,2.55,3.75h-1.54Z"/>
          <path class="cls-1" d="M201.72,92.52h5.78s0,1.28,0,1.28h-7.2s0-10.33,0-10.33h7s0,1.28,0,1.28h-5.58s0,7.77,0,7.77ZM201.58,87.93h5.1s0,1.25,0,1.25h-5.1s0-1.25,0-1.25Z"/>
          <path class="cls-1" d="M214.1,93.91c-.76,0-1.48-.12-2.17-.36-.69-.24-1.23-.55-1.63-.94l.52-1.15c.38.34.86.63,1.45.86.59.23,1.2.34,1.83.34.58,0,1.04-.07,1.4-.21.36-.14.62-.33.79-.57.17-.24.26-.51.26-.82,0-.35-.11-.64-.33-.86-.22-.21-.51-.39-.87-.52-.35-.13-.74-.25-1.17-.34-.42-.1-.85-.21-1.28-.35-.43-.13-.82-.3-1.18-.51-.35-.21-.64-.48-.86-.83s-.33-.8-.33-1.35c0-.53.13-1.02.4-1.47.27-.45.68-.81,1.25-1.08.56-.27,1.28-.41,2.15-.41.58,0,1.15.08,1.71.23s1.06.38,1.47.68l-.47,1.18c-.43-.3-.88-.51-1.35-.64-.47-.13-.93-.2-1.38-.2-.56,0-1.01.08-1.37.22-.36.15-.62.34-.79.59-.17.25-.25.52-.25.83,0,.37.11.66.33.87.22.22.51.39.87.52.35.13.74.24,1.17.34.42.1.85.22,1.28.35.43.13.82.29,1.18.5s.64.48.86.83c.22.34.33.79.33,1.33,0,.52-.14,1.01-.41,1.45-.27.45-.7.81-1.27,1.08-.57.27-1.29.41-2.16.41Z"/>
          <path class="cls-1" d="M228.07,92.49h5.78s0,1.28,0,1.28h-7.2s0-10.33,0-10.33h7s0,1.28,0,1.28h-5.58s0,7.77,0,7.77ZM227.93,87.9h5.1s0,1.25,0,1.25h-5.1s0-1.25,0-1.25Z"/>
          <path class="cls-1" d="M237.56,93.77v-10.34s1.15,0,1.15,0l6.57,8.48h-.61s0-8.49,0-8.49h1.42s0,10.33,0,10.33h-1.16s-6.57-8.48-6.57-8.48h.61v8.49s-1.41,0-1.41,0Z"/>
          <path class="cls-1" d="M257.12,93.75h-1.42s0-10.34,0-10.34h7s0,1.28,0,1.28h-5.58s0,9.06,0,9.06ZM256.98,88.3h5.11s0,1.26,0,1.26h-5.11s0-1.26,0-1.26Z"/>
          <path class="cls-1" d="M264.17,93.74l4.48-10.34h1.4s4.51,10.33,4.51,10.33h-1.49s-4.02-9.51-4.02-9.51h.57l-4,9.51h-1.46ZM266.08,91.16l.38-1.18h5.58s.41,1.18.41,1.18h-6.38Z"/>
          <path class="cls-1" d="M277.45,93.73v-10.34s4.44,0,4.44,0c1.14,0,2.02.24,2.63.71.62.48.92,1.13.92,1.96,0,.56-.12,1.03-.36,1.42s-.56.68-.97.89c-.41.21-.84.31-1.32.31l.25-.44c.57,0,1.07.1,1.5.31.43.21.78.51,1.04.91s.38.89.38,1.48c0,.89-.32,1.57-.95,2.06-.64.49-1.58.73-2.84.73h-4.73ZM278.87,92.53h3.26c.78,0,1.38-.14,1.8-.42.42-.28.62-.71.62-1.3,0-.6-.21-1.04-.62-1.31-.42-.28-1.02-.41-1.8-.41h-3.39s0-1.19,0-1.19h3.03c.72,0,1.28-.14,1.67-.42.4-.28.59-.69.59-1.24,0-.55-.2-.96-.6-1.24-.4-.27-.95-.41-1.67-.41h-2.9s0,7.95,0,7.95Z"/>
          <path class="cls-1" d="M289.6,93.72v-10.34s3.86,0,3.86,0c.87,0,1.61.14,2.22.42.61.29,1.09.7,1.42,1.24.33.54.5,1.19.5,1.93,0,.75-.16,1.39-.49,1.93-.33.54-.8.95-1.42,1.23-.61.29-1.35.43-2.22.43h-3.09s.64-.68.64-.68v3.83s-1.41,0-1.41,0ZM291.01,90.04l-.64-.72h3.05c.91,0,1.59-.21,2.06-.62.47-.41.7-.98.7-1.72,0-.74-.23-1.31-.7-1.71-.47-.4-1.16-.6-2.06-.6h-3.05s.64-.74.64-.74v6.11ZM296.23,93.71l-2.53-3.75h1.52s2.55,3.75,2.55,3.75h-1.54Z"/>
          <path class="cls-1" d="M301.31,93.7v-10.34s1.41,0,1.41,0v10.34s-1.41,0-1.41,0Z"/>
          <path class="cls-1" d="M311.56,93.81c-.76,0-1.45-.13-2.09-.39s-1.19-.63-1.66-1.11c-.47-.48-.83-1.04-1.1-1.67s-.4-1.34-.4-2.11c0-.77.13-1.47.4-2.11.26-.64.63-1.2,1.1-1.68.47-.48,1.03-.85,1.66-1.11s1.33-.39,2.09-.39c.76,0,1.47.13,2.12.4.65.27,1.2.67,1.65,1.2l-.92.93c-.38-.41-.8-.72-1.28-.92-.47-.2-.98-.3-1.52-.3-.56,0-1.08.1-1.55.3-.48.2-.89.47-1.24.83-.35.35-.62.78-.81,1.26-.19.49-.29,1.02-.29,1.59,0,.57.1,1.1.29,1.59.19.49.47.91.82,1.26.35.35.76.63,1.24.83s.99.29,1.55.29c.54,0,1.04-.1,1.52-.3.47-.2.9-.52,1.27-.94l.92.93c-.45.53-1,.94-1.65,1.21-.65.28-1.36.41-2.13.42Z"/>
          <path class="cls-1" d="M317.04,93.69l4.48-10.34h1.4s4.51,10.33,4.51,10.33h-1.49s-4.02-9.5-4.02-9.5h.57s-4,9.51-4,9.51h-1.46ZM318.95,91.1l.38-1.18h5.58s.41,1.17.41,1.17h-6.38Z"/>
          <path class="cls-1" d="M334.62,93.79c-.76,0-1.45-.13-2.09-.39s-1.19-.63-1.66-1.11c-.47-.48-.83-1.04-1.1-1.67s-.4-1.34-.4-2.11c0-.77.13-1.47.4-2.11.26-.64.63-1.2,1.1-1.68.47-.48,1.03-.85,1.66-1.11s1.33-.39,2.09-.39c.76,0,1.47.13,2.12.4.65.27,1.2.67,1.65,1.2l-.92.93c-.38-.41-.8-.72-1.28-.92-.47-.2-.98-.3-1.52-.3-.56,0-1.08.1-1.55.3-.48.2-.89.47-1.24.83-.35.35-.62.78-.81,1.26-.19.49-.29,1.02-.29,1.59,0,.57.1,1.1.29,1.59.19.49.47.91.82,1.26.35.35.76.63,1.24.83s.99.29,1.55.29c.54,0,1.04-.1,1.52-.3.47-.2.9-.52,1.27-.94l.92.93c-.45.53-1,.94-1.65,1.21-.65.28-1.36.41-2.13.42Z"/>
          <path class="cls-1" d="M341.84,93.66v-10.34s1.41,0,1.41,0v10.34s-1.41,0-1.41,0Z"/>
          <path class="cls-1" d="M352.13,93.77c-.76,0-1.46-.13-2.11-.4-.65-.27-1.21-.64-1.68-1.11-.47-.48-.84-1.04-1.11-1.67-.26-.64-.4-1.34-.4-2.1,0-.76.13-1.46.4-2.1.26-.64.63-1.2,1.1-1.68.47-.48,1.03-.85,1.67-1.12.64-.27,1.35-.4,2.11-.4.75,0,1.45.13,2.09.39.64.26,1.2.63,1.67,1.11.48.48.85,1.04,1.11,1.67.26.64.39,1.34.39,2.11,0,.77-.13,1.47-.39,2.11-.26.64-.63,1.2-1.1,1.68-.48.48-1.03.85-1.67,1.11-.64.26-1.33.39-2.09.39ZM352.13,92.46c.55,0,1.05-.1,1.52-.3.47-.2.87-.48,1.22-.84.34-.36.61-.78.81-1.26.19-.48.29-1.01.29-1.58,0-.57-.1-1.1-.29-1.58s-.46-.9-.81-1.26c-.34-.36-.75-.64-1.22-.83-.47-.2-.98-.29-1.52-.29-.56,0-1.07.1-1.54.3-.47.2-.88.48-1.22.83-.35.36-.62.78-.81,1.26s-.29,1.01-.29,1.58c0,.57.1,1.1.29,1.58.19.48.47.9.82,1.26.35.36.76.64,1.23.83.47.2.98.29,1.54.29ZM351.06,82.47l1.92-1.92h1.73s-2.38,1.92-2.38,1.92h-1.27Z"/>
          <path class="cls-1" d="M360.97,93.64v-10.34s1.15,0,1.15,0l6.57,8.48h-.61s0-8.49,0-8.49h1.42s0,10.33,0,10.33h-1.16s-6.57-8.48-6.57-8.48h.61v8.49s-1.41,0-1.41,0Z"/>
          <path class="cls-1" d="M379.12,93.62v-10.34s4.17,0,4.17,0c1.06,0,1.99.21,2.8.65.81.43,1.44,1.04,1.89,1.81.45.78.67,1.68.68,2.7,0,1.02-.22,1.93-.67,2.7-.45.78-1.08,1.38-1.88,1.82-.81.43-1.74.65-2.8.65h-4.18ZM380.53,92.34h2.68c.82,0,1.53-.17,2.13-.49.6-.33,1.06-.78,1.39-1.37.33-.59.5-1.26.49-2.03,0-.78-.17-1.46-.5-2.04-.33-.58-.8-1.03-1.4-1.36-.6-.33-1.31-.49-2.13-.49h-2.68s0,7.77,0,7.77Z"/>
          <path class="cls-1" d="M392.24,93.61v-10.34s1.41,0,1.41,0v10.34s-1.41,0-1.41,0Z"/>
          <path class="cls-1" d="M402.52,93.72c-.77,0-1.47-.13-2.11-.39s-1.2-.63-1.67-1.11c-.47-.48-.84-1.04-1.11-1.67s-.4-1.34-.4-2.11c0-.77.13-1.47.4-2.11.26-.64.63-1.2,1.11-1.68.48-.48,1.04-.85,1.68-1.11.64-.26,1.35-.39,2.12-.39.78,0,1.5.13,2.15.4.65.26,1.21.66,1.66,1.19l-.88.92c-.41-.41-.85-.71-1.33-.91-.48-.19-.99-.29-1.55-.29-.57,0-1.09.1-1.58.3-.49.2-.91.47-1.26.83-.35.35-.63.78-.82,1.26-.19.49-.29,1.02-.29,1.59,0,.56.1,1.09.29,1.57.19.49.47.91.82,1.27.35.36.77.64,1.25.83s1.01.29,1.57.29c.53,0,1.04-.09,1.52-.26.49-.17.94-.46,1.35-.86l.81,1.12c-.49.43-1.06.76-1.72.98-.66.22-1.33.33-2.03.33ZM404.92,92.21v-3.84s1.36,0,1.36,0v4.03s-1.36-.19-1.36-.19Z"/>
          <path class="cls-1" d="M410.4,93.59v-10.34s1.41,0,1.41,0v10.34s-1.41,0-1.41,0Z"/>
          <path class="cls-1" d="M418.18,93.59v-9.05s-3.41,0-3.41,0v-1.28s8.2,0,8.2,0v1.28s-3.4,0-3.4,0v9.05s-1.39,0-1.39,0Z"/>
          <path class="cls-1" d="M423.94,93.58l4.48-10.34h1.4s4.51,10.33,4.51,10.33h-1.49s-4.02-9.51-4.02-9.51h.57l-4,9.51h-1.46ZM425.85,90.99l.38-1.18h5.58s.41,1.18.41,1.18h-6.38Z"/>
          <path class="cls-1" d="M437.23,93.57v-10.34s1.41,0,1.41,0v9.05s5.38,0,5.38,0v1.29s-6.79,0-6.79,0Z"/>
        </g>
        <g>
          <polygon class="cls-1" points="165.39 48.53 184.16 28.55 174.84 28.56 159.86 44.14 159.87 54.55 159.9 54.53 175.65 73.24 185.35 73.23 165.39 48.53"/>
          <rect class="cls-1" x="148.41" y="28.58" width="8.3" height="44.68" transform="translate(-.05 .16) rotate(-.06)"/>
          <path class="cls-1" d="M216.07,58.56c.22-.09.43-.18.65-.27,2.83-1.26,5.01-3.07,6.54-5.43,1.53-2.36,2.29-5.18,2.29-8.46,0-3.28-.77-6.11-2.31-8.49-1.53-2.38-3.72-4.21-6.55-5.48-2.83-1.27-6.22-1.91-10.18-1.9l-18.38.02.05,44.68h8.3s-.04-37.67-.04-37.67h9.7c3.66-.01,6.41.75,8.27,2.28,1.85,1.53,2.78,3.72,2.78,6.57s-.92,5-2.77,6.58c-1.85,1.58-4.6,2.37-8.26,2.37h-6.54s0,6.84,0,6.84h6.93c.59,0,1.18-.02,1.75-.05l9.12,13.06h8.94s-10.27-14.63-10.27-14.63Z"/>
          <path class="cls-1" d="M344.35,58.43c.22-.09.43-.18.65-.27,2.83-1.26,5.01-3.07,6.54-5.43,1.53-2.36,2.29-5.18,2.29-8.46,0-3.28-.77-6.11-2.31-8.49-1.53-2.38-3.72-4.21-6.55-5.48-2.83-1.27-6.22-1.91-10.18-1.9l-18.38.02.05,44.68h8.3s-.04-37.67-.04-37.67h9.7c3.66-.01,6.41.75,8.27,2.28,1.85,1.53,2.78,3.72,2.78,6.57s-.92,5-2.77,6.58c-1.85,1.58-4.6,2.37-8.26,2.37h-7.33s0,6.84,0,6.84h7.71c.59,0,1.18-.02,1.75-.05l9.12,13.06h8.94s-10.27-14.63-10.27-14.63Z"/>
          <polygon class="cls-1" points="263.19 66.19 263.2 73.15 229.69 73.18 229.64 28.5 262.26 28.47 262.26 35.43 237.95 35.45 237.96 47.07 259.53 47.05 259.54 53.88 237.97 53.9 237.98 66.22 263.19 66.19"/>
          <path class="cls-1" d="M282.52,62.79l18.93-.02,4.45,10.34h8.68s-20.22-44.67-20.22-44.67h-8.17s-20.06,44.71-20.06,44.71h8.55s4.41-10.35,4.41-10.35l2.78-6.51,8.35-19.56,8.42,19.54h-13.34s-2.79,6.53-2.79,6.53Z"/>
          <path class="cls-1" d="M404.59,59.6c0,2.51-.63,4.83-1.91,6.96-1.27,2.13-3.22,3.84-5.83,5.14-2.62,1.3-5.92,1.95-9.92,1.96-3.15,0-6.23-.45-9.23-1.36-3-.91-5.52-2.17-7.57-3.79l3.57-6.45c1.62,1.32,3.58,2.38,5.88,3.19,2.3.81,4.7,1.21,7.21,1.21,2.98,0,5.3-.61,6.95-1.83,1.66-1.22,2.49-2.86,2.49-4.95s-.77-3.66-2.3-4.85c-1.53-1.19-4-1.78-7.41-1.78h-4.08s0-5.68,0-5.68l10.12-12.07-20.29.02v-6.96s30.44-.03,30.44-.03v5.55s-10.79,12.87-10.79,12.87c3.63.45,6.48,1.59,8.55,3.44,2.75,2.44,4.12,5.58,4.13,9.41Z"/>
          <path class="cls-1" d="M443.09,38.88c-2.05-3.32-4.9-5.91-8.56-7.78-3.66-1.87-7.92-2.8-12.77-2.8h-14.19s0,7.06,0,7.06h2.88s10.93-.04,10.93-.04c3.36,0,6.27.63,8.71,1.91,2.45,1.27,4.34,3.05,5.69,5.32,1.34,2.28,2.02,4.97,2.02,8.07,0,3.06-.66,5.75-2,8.04-1.34,2.3-3.23,4.09-5.68,5.37-2.45,1.28-5.35,1.92-8.71,1.92h-13.81s0,7.04,0,7.04h14.19c4.85-.02,9.1-.96,12.76-2.84,3.66-1.88,6.51-4.48,8.54-7.83,2.04-3.34,3.06-7.25,3.05-11.72,0-4.51-1.03-8.42-3.08-11.74Z"/>
        </g>
      </g>
    </g>
  </g>
</svg>