<svg id="Capa_1" data-name="Capa 1" xmlns="http://www.w3.org/2000/svg" width="151.8mm" height="51.27mm" viewBox="0 0 430.29 145.32"><path d="M151.08,327.23c2.16-3.11,4.1-6,6.18-8.87,1-1.39,2.33-2.58,3.48-3.88,3-3.37,6.69-4,10.87-3.05.9.21,1.77.5,2.69.76-1.73,2.95-3.3,5.79-5.05,8.53a18.72,18.72,0,0,1-6.83,6.48,9.5,9.5,0,0,1-7,1Z" transform="translate(-89.3 -220.18)" fill="#2b2b2b"/><path d="M90,289.69c1.84.39,3.62.8,5.4,1.14,16.42,3.17,30.74-1.21,43.26-12,3-2.54,5.9-5.1,8.9-7.58A47.52,47.52,0,0,1,160.38,264a1.91,1.91,0,0,1,2.26.44,46.84,46.84,0,0,1,11.65,14.82L169,280.31a85.21,85.21,0,0,0-33,14Q125,302,113.57,309a45,45,0,0,1-16.65,6.15c-2.75.44-2.75.48-4-2A36.94,36.94,0,0,1,90,289.69Z" transform="translate(-89.3 -220.18)" fill="#2b2b2b"/><path d="M149,326.54c-1.71-.38-3.28-.71-4.85-1.1a7.72,7.72,0,0,0-5.84.84q-7.4,4.23-14.71,8.6c-2.07,1.24-4,2.7-6,4a1.6,1.6,0,0,1-1.39.1c-2.62-1.77-5.19-3.63-8-5.63,1.3-.59,2.3-1,3.27-1.49a89,89,0,0,0,16.23-11.18,194.46,194.46,0,0,0,19.4-18.35c4.42-4.81,10.16-7.32,16.35-8.69,4.57-1,9.28-1.41,13.92-2.09.72-.11,1,.09,1.12.88a57.26,57.26,0,0,1-1,16.42c-.22,1.19-1,1.44-2.17,1.16a46.34,46.34,0,0,0-6.94-1.39,11,11,0,0,0-8.7,3.5,55.1,55.1,0,0,0-10.07,13.34Z" transform="translate(-89.3 -220.18)" fill="#2b2b2b"/><path d="M175.8,283.49c.23.67.48,1.29.66,1.93.32,1.11.6,2.24.92,3.47-2.74.29-5.4.5-8,.88-6.79,1-13.45,2.56-19.13,6.56a62.45,62.45,0,0,0-7.78,7.15c-9.08,9.13-18.5,17.84-29.55,24.6a44.21,44.21,0,0,1-5.55,2.66,1.62,1.62,0,0,1-1.43-.15,57,57,0,0,1-9.68-11l2.31-.43c8-1.48,15.2-5,22-9.4,6.5-4.2,12.88-8.6,19.23-13,9.58-6.7,20.32-10.41,31.69-12.6,1.32-.25,2.64-.46,4-.68A3.92,3.92,0,0,1,175.8,283.49Z" transform="translate(-89.3 -220.18)" fill="#2b2b2b"/><path d="M90.39,286.64c.66-2.08,1.32-4.15,2-6.23.26-.84.85-.58,1.41-.48A44,44,0,0,0,116,278.47c6.49-2.24,11.85-6.24,16.82-10.83a68,68,0,0,0,11.08-13.32,45.62,45.62,0,0,1,15.29,7.13l-4,1.79c-6.26,2.85-11.3,7.36-16.36,11.86-5.67,5-11.83,9.27-19.11,11.69C110.2,290,100.62,289.46,91,287A3.92,3.92,0,0,1,90.39,286.64Z" transform="translate(-89.3 -220.18)" fill="#2b2b2b"/><path d="M142.46,253.78c-2.67,3.26-5,6.42-7.68,9.29-5.11,5.54-10.87,10.3-17.94,13.16-7.74,3.13-15.74,3.44-23.88,1.89C97.4,261.84,123.52,248.84,142.46,253.78Zm-23.67,13a11.75,11.75,0,0,0,.13,2.12,1,1,0,0,0,.77.58c2.28-.25,4.57-3.24,4.46-5.46a1.93,1.93,0,0,0-1.93-2.08,2.06,2.06,0,0,0-2.52,1.47C119.29,264.59,119,265.85,118.79,266.75Zm-4.48-1.59c-2,1.29-3.78,2.45-5.56,3.63-.45.3-.85.68-1.27,1,.48.55.86,1.39,1.46,1.61,2.87,1,5.41-.4,6.34-3.38A2.25,2.25,0,0,0,114.31,265.16Zm-9.92,3.21a16.43,16.43,0,0,1-2.46.08c-.63-.07-1.34-.48-1.54.42a1.25,1.25,0,0,0,1.29,1.53,22.72,22.72,0,0,0,3.23-.21Z" transform="translate(-89.3 -220.18)" fill="#2b2b2b"/><path d="M426.31,269.11h9.85c2.6,0,5.21.15,7.8,0,12.14-.85,20.55,7.05,21.86,18.92a67.61,67.61,0,0,1,0,15.51c-1.31,10.58-8.9,17.76-19.92,18.85-5.77.56-11.65.1-17.48,0-1.33,0-2.46-.25-2.45-2.17.07-16.6.05-33.2.06-49.8A8.26,8.26,0,0,1,426.31,269.11Zm7.41,47.32c2.63,0,5.11.17,7.57,0,9-.73,15-5.64,16.5-14.54a45.6,45.6,0,0,0,.17-13.8c-1-7.43-6-11.65-13.56-12.45-2.67-.28-5.38-.17-8.06-.4-2.23-.19-2.82.69-2.8,2.85.1,12,0,23.93,0,35.89C433.59,314.67,433.67,315.38,433.72,316.43Z" transform="translate(-89.3 -220.18)" fill="#2b2b2b"/><path d="M355.91,274.89v47.5h-7.43V269.28c.75,0,1.54-.16,2.34-.16,5.11,0,10.22,0,15.33,0A14.06,14.06,0,0,1,380,284.49c-.58,6.34-3.28,11.35-8.86,14.59-2.05,1.2-1.79,2.4-.6,4.05,4.08,5.64,8.08,11.34,12.1,17,.46.66.89,1.34,1.61,2.42-2.66,0-4.86.11-7-.06a3.18,3.18,0,0,1-1.9-1.35q-7.8-10.84-15.48-21.77a15.89,15.89,0,0,1-1.05-2.17c5-.7,9.41-2.07,11.51-6.64,1.07-2.35,2-5.22,1.64-7.66C371.08,277.24,364.69,274.14,355.91,274.89Z" transform="translate(-89.3 -220.18)" fill="#2b2b2b"/><path d="M231.82,269.15c7.07,0,14.05-.39,21,.12,5.59.42,10.61,7.89,10.45,14.41s-2.92,11.84-8.63,15.27c-2.14,1.28-2,2.43-.77,4.21,4.43,6.19,8.78,12.43,13.16,18.66a.61.61,0,0,1,.07.25c-4.67,1.53-7.36.72-10-3q-6.69-9.42-13.39-18.84c-.56-.79-1-1.66-1.83-3,5.48-.63,10-2.35,12.07-7.25,1-2.29,1.7-5.2,1.13-7.47-1.06-4.24-5.47-9.12-15.62-7.56v47.47h-7.57Z" transform="translate(-89.3 -220.18)" fill="#2b2b2b"/><path d="M313.9,310.14l-4.09,12.21h-7.39c1.62-5,3.13-9.72,4.7-14.44,4-12.05,8.12-24.06,12-36.14.66-2,1.49-2.77,3.64-2.71,5.52.13,5.54,0,7.29,5.31,5.17,15.75,10.32,31.5,15.65,47.76-2.48.11-4.73.33-7,.23-.5,0-1.12-1.06-1.38-1.74-1.12-2.95-2.05-6-3.21-8.89a2.71,2.71,0,0,0-1.84-1.52C326.21,310.1,320.09,310.14,313.9,310.14ZM331.5,303c-2.49-8.39-4.92-16.58-7.36-24.77l-.65.07c-2.53,8.17-5.06,16.33-7.66,24.7Z" transform="translate(-89.3 -220.18)" fill="#2b2b2b"/><path d="M299.78,316.38V322H269.85V269.45H299v6.29H277.61v14.45h16.87V298H277.42v18.4Z" transform="translate(-89.3 -220.18)" fill="#2b2b2b"/><path d="M390.12,319.89c.69-1.87,1.39-3.74,2.05-5.5,3.55.75,6.85,1.68,10.21,2.11,5.78.75,10.3-1.47,13.51-6.4,3.34-5.14,1.3-11.08-4.57-12.76a29.21,29.21,0,0,0-5.75-.92c-1.92-.16-3.86,0-6.24,0,1-4.24,3.91-7.07,5.93-10.37s4.3-6.62,6.77-10.38H392.29v-6.16h32.09l-14.32,21.09a5.7,5.7,0,0,0,1.5.25c5.69-.94,8.62,2.86,11.53,6.67a5.63,5.63,0,0,1,.87,1.73c3.51,11-2.67,21.15-14,23.16C404.5,323.32,395.16,322.18,390.12,319.89Z" transform="translate(-89.3 -220.18)" fill="#2b2b2b"/><path d="M210.62,295c6.16,9,12.31,18.05,18.8,27.55-2.71,0-4.9.14-7.07-.07a3.63,3.63,0,0,1-2.08-1.51c-5.79-7.84-11.5-15.73-17.31-23.56a2.57,2.57,0,0,1,0-3.45c5.07-7.66,10-15.38,15.15-23a3.66,3.66,0,0,1,2.38-1.4c2.18-.2,4.38-.07,7.12-.07Z" transform="translate(-89.3 -220.18)" fill="#2b2b2b"/><path d="M192.61,321.79V269h7.18v52.75Z" transform="translate(-89.3 -220.18)" fill="#2b2b2b"/><text transform="translate(116.66 136.95)" font-size="32.33" fill="#2b2b2b" font-family="Montserrat-LightItalic, Montserrat" font-weight="300" font-style="italic">Sopo<tspan x="81.6" y="0" letter-spacing="0.02em">r</tspan><tspan x="94.82" y="0" letter-spacing="-0.02em">t</tspan><tspan x="107.08" y="0">e </tspan><tspan x="134.72" y="0" letter-spacing="-0.05em">T</tspan><tspan x="151.14" y="0">écni</tspan><tspan x="218.61" y="0" letter-spacing="-0.01em">c</tspan><tspan x="236.26" y="0" letter-spacing="0em">o</tspan></text><path d="M490.39,323.81c-.09-6.36.87-11.54,8.53-10.51,2.17.29,4.31.91,6.48,1.28,3.94.69,6.87.91,8.46-2.69,1.78-4,3.44-8.3,4.88-12.44,1.53-4.41,1.24-5.87-3-7.89a56,56,0,0,1-7.89-4.3c-1.13-.74-1.86-3.06-1.86-5.2,0-3.48,2.65-5.58,5.27-7.08,9.53-5.46,9.38-7.74,5-17.48-5.54-12.3-4.6-11.19-17.45-7.7-6.14,1.67-11.08-1.54-9.11-9.41,3.61-14.43,3.85-12.7-8.34-17.68-11.14-4.55-11.45-3.38-17.89,6.93-.13.21-.27.41-.4.61-3,4.71-8.09,5.25-11.15.67-1.29-1.93-2.55-5.17-3.94-7-2.55-3.39-5.77-4.46-9.66-3-4.1,1.56-7.78,3-11.73,4.94s-5.35,5.2-4.38,9.7c.57,2.62,1.61,5.29,2.05,7.93.51,3.11-1.63,6.62-4.73,6.1s-5.24-.94-8.68-1.54c-5.11-.22-7,.89-9,4.12a52.63,52.63,0,0,0-2.94,6.54c-.62,1.41-1.15,2.68-1.58,3.83h6.63c.17-.42.36-.87.57-1.36,2.74-6.57,2.67-7.49,10.47-5.8,5.9,1.28,7.84,1.65,11.62-2.12,4.27-4.26,5.43-7.73,3.89-13.65-.31-1.18-.44-2.08-1-3.89-.81-2.78,0-3.64,2.59-4.81,3.2-1.46,6.77-3.7,9.41-2.95,2.45.69,4.25,4.74,5.75,7.65s3.9,4.33,9.46,4.4c8.49.1,9.24-3,12.64-8.24.77-1.19,1.69-2.79,2.63-4.34a2.36,2.36,0,0,1,2.8-.92c3.06.93,6.32,2.13,9,3.1s2.26,3.42,1.75,5.7c-.59,2.62-1.4,5-2.09,7.61s-.82,4.27,3.84,8.68c5.91,5.58,7,5.32,10.52,4.29,10.72-3.07,9.93-3.86,14.11,5.07,1.36,2.89,1.48,4.9-2.14,7.46-9.28,6.56-10.42,6.54-9,17.74.66,5.14,7,8.21,10.89,9.79,2.6,1.06,1.06,4-.94,8.91-2.56,6.29-8.78,3.37-12,2.62-3.5-.8-6,.31-8.79,2.87-4.36,4-4.81,6.67-4.72,13.51Z" transform="translate(-89.3 -220.18)" fill="#7a7a7a"/><path d="M458.24,250.91c-10.54-.49-18,2.91-24.45,11.72H441a26,26,0,0,1,17.32-6.47,26.27,26.27,0,0,1,25.79,26.47,25.92,25.92,0,0,1-10.84,21.06v8.86c10.92-5.6,17-17.26,16.93-30.64C490.09,263.77,476.46,250.85,458.24,250.91Z" transform="translate(-89.3 -220.18)" fill="#7a7a7a"/></svg>