<svg xmlns="http://www.w3.org/2000/svg" version="1.1" xmlns:xlink="http://www.w3.org/1999/xlink" width="16" height="16" x="0" y="0" viewBox="0 0 512 512" style="enable-background:new 0 0 512 512" xml:space="preserve" class=""><g><path d="M398.076 124.819a21.649 21.649 0 0 0-21.865 0l-32.772 18.921v-1.332a34.514 34.514 0 0 0-34.476-34.476h-171.5a34.515 34.515 0 0 0-34.477 34.476v123.183a34.515 34.515 0 0 0 34.477 34.476h171.5a34.514 34.514 0 0 0 34.476-34.476v-6.509L376.213 278a21.868 21.868 0 0 0 32.8-18.939V143.758a21.648 21.648 0 0 0-10.937-18.939zm-86.637 140.772a2.541 2.541 0 0 1-2.476 2.476h-171.5a2.542 2.542 0 0 1-2.477-2.476V142.409a2.542 2.542 0 0 1 2.477-2.476h171.5a2.541 2.541 0 0 1 2.476 2.476zm65.573-24.076-33.573-19.383v-41.441l33.573-19.382zM439.136 5.941H72.864A72.947 72.947 0 0 0 0 78.806v260.905a72.946 72.946 0 0 0 72.864 72.864H107.6v59.7a33.643 33.643 0 0 0 50.573 29.2l153.98-88.9h126.983A72.946 72.946 0 0 0 512 339.711V78.806a72.947 72.947 0 0 0-72.864-72.865zM480 339.711a40.91 40.91 0 0 1-40.864 40.864H307.867a16 16 0 0 0-8 2.144l-157.693 91.045a1.715 1.715 0 0 1-2.573-1.487v-75.7a16 16 0 0 0-16-16H72.864A40.91 40.91 0 0 1 32 339.711V78.806a40.911 40.911 0 0 1 40.864-40.865h366.272A40.911 40.911 0 0 1 480 78.806z" fill="#ed5d1f" opacity="1" data-original="#ed5d1f" class=""></path></g></svg>