<?xml version="1.0" encoding="utf-8"?>
<!-- Generator: Adobe Illustrator 25.2.0, SVG Export Plug-In . SVG Version: 6.00 Build 0)  -->
<svg version="1.1" id="Layer_1" xmlns="http://www.w3.org/2000/svg" xmlns:xlink="http://www.w3.org/1999/xlink" x="0px" y="0px"
	 viewBox="0 0 24 24" style="enable-background:new 0 0 24 24;" xml:space="preserve">
<style type="text/css">
	.st0{fill-rule:evenodd;clip-rule:evenodd;fill:#ED6B22;}
</style>
<g>
	<path class="st0" d="M21.4,0.6h-8.2c-1.4,0-2.6,1.2-2.6,2.6V6H1.9C0.8,6,0,6.8,0,7.8v8.8c0,1,0.8,1.9,1.9,1.9h3.8L5.5,20H4.6
		c-0.9,0-1.7,0.8-1.7,1.7c0,0.9,0.8,1.7,1.7,1.7h18.6c0.4,0,0.8-0.3,0.8-0.8V3.2C24,1.7,22.8,0.6,21.4,0.6z M1.5,16.6V7.8
		c0-0.2,0.2-0.4,0.4-0.4h14.5c0.2,0,0.4,0.2,0.4,0.4v8.8c0,0.2-0.2,0.4-0.4,0.4H1.9C1.7,17,1.5,16.8,1.5,16.6z M7.2,18.5H11l0.2,1.5
		H7L7.2,18.5z M4.6,21.9c-0.1,0-0.2-0.1-0.2-0.2s0.1-0.2,0.2-0.2h8.9c0.1,0,0.2,0.1,0.2,0.2s-0.1,0.2-0.2,0.2L4.6,21.9z M22.5,21.9
		h-7.3c0-0.1,0-0.1,0-0.2c0-0.9-0.8-1.7-1.7-1.7h-0.9l-0.2-1.5h3.8c1,0,1.9-0.8,1.9-1.9v-8h2.4c0.4,0,0.8-0.3,0.8-0.8
		c0-0.4-0.3-0.8-0.8-0.8h-2.5C17.8,6.5,17.1,6,16.3,6h-4.1V3.2c0-0.6,0.5-1.1,1.1-1.1h8.2c0.6,0,1.1,0.5,1.1,1.1V21.9z M21.3,4.4
		c0,0.4-0.3,0.8-0.8,0.8h-6.4c-0.4,0-0.8-0.3-0.8-0.8s0.3-0.8,0.8-0.8h6.4C21,3.7,21.3,4,21.3,4.4z M20.6,15.5
		c0,0.5-0.4,0.8-0.8,0.8S19,15.9,19,15.5c0-0.5,0.4-0.8,0.8-0.8S20.6,15,20.6,15.5z M20.6,18.8c0,0.5-0.4,0.8-0.8,0.8
		S19,19.3,19,18.8s0.4-0.8,0.8-0.8S20.6,18.4,20.6,18.8z"/>
</g>
</svg>
