<svg xmlns="http://www.w3.org/2000/svg" version="1.1" xmlns:xlink="http://www.w3.org/1999/xlink" width="24" height="24" x="0" y="0" viewBox="0 0 512 512" style="enable-background:new 0 0 512 512" xml:space="preserve" class=""><g><path fill-rule="evenodd" d="M457 12.375H283c-30.327 0-55 24.673-55 55v60.226H39.691C17.806 127.601 0 145.406 0 167.292v187.831c0 21.887 17.806 39.692 39.691 39.692h81.749l-3.93 31.813H99.198c-20.125 0-36.497 16.373-36.497 36.499 0 20.125 16.372 36.497 36.497 36.497H496c8.837 0 16-7.163 16-16V67.375c0-30.327-24.673-55-55-55zM32 355.123V167.292c0-4.169 3.522-7.691 7.691-7.691h308.5c4.169 0 7.691 3.522 7.691 7.691v187.831c0 4.17-3.522 7.692-7.691 7.692h-308.5c-4.169 0-7.691-3.522-7.691-7.692zm121.683 39.692H234.2l3.93 31.813h-88.376zm-54.485 72.81c-2.438 0-4.497-2.06-4.497-4.498s2.06-4.498 4.497-4.498h189.486c2.438 0 4.498 2.061 4.498 4.499s-2.06 4.497-4.498 4.497zm380.802 0H324.896c.182-1.475.287-2.974.287-4.498 0-20.125-16.373-36.498-36.498-36.498h-18.313l-3.93-31.813h81.75c21.886 0 39.691-17.806 39.691-39.692V185.352h50.367c8.837 0 16-7.163 16-16s-7.163-16-16-16h-52.901c-5.657-15.028-20.176-25.751-37.158-25.751H260V67.375c0-12.683 10.317-23 23-23h174c12.683 0 23 10.317 23 23zM454.25 94.35c0 8.837-7.163 16-16 16h-136.5c-8.837 0-16-7.163-16-16s7.163-16 16-16h136.5c8.837 0 16 7.163 16 16zM439.896 330.1c0 9.639-7.861 17.5-17.5 17.5s-17.5-7.861-17.5-17.5 7.861-17.5 17.5-17.5 17.5 7.861 17.5 17.5zm0 72c0 9.639-7.861 17.5-17.5 17.5s-17.5-7.861-17.5-17.5 7.861-17.5 17.5-17.5 17.5 7.861 17.5 17.5z" clip-rule="evenodd" fill="#ed5d1f" opacity="1" data-original="#000000"></path></g></svg>