<svg xmlns="http://www.w3.org/2000/svg" version="1.1" xmlns:xlink="http://www.w3.org/1999/xlink" width="64" height="64" x="0" y="0" viewBox="0 0 511.999 511.999" style="enable-background:new 0 0 512 512" xml:space="preserve" class=""><g><circle cx="213.044" cy="218.354" r="205.544" fill="#344c55" opacity="1" data-original="#365e7d" class=""></circle><path fill="#557581" d="M418.589 218.354c0-113.519-92.025-205.544-205.545-205.544a208 208 0 0 0-13.75.469c102.32 6.76 184.171 88.382 191.282 190.605.483 6.946-5.209 12.689-12.17 12.541a148.952 148.952 0 0 0-3.21-.034c-84.773 0-153.496 68.722-153.496 153.496 0 7.961.608 15.779 1.779 23.411 2.314 15.087-8.645 29.083-23.874 30.113l-.312.021c4.546.3 9.128.469 13.75.469 114.191-.002 205.546-92.786 205.546-205.547z" opacity="1" data-original="#2b4d66" class=""></path><circle cx="213.044" cy="218.354" r="157.782" fill="#f4fbff" opacity="1" data-original="#f4fbff" class=""></circle><path fill="#daf1f4" d="M370.826 218.354c0-87.14-70.641-157.782-157.782-157.782-4.275 0-8.508.176-12.697.51 81.505 6.491 145.56 74.913 145.082 158.198l-.009.01c-66.577 13.089-116.233 68.597-122.944 134.833-1.154 11.386-10.071 20.493-21.476 21.45l-.653.053c91.876 7.32 170.479-65.064 170.479-157.272z" opacity="1" data-original="#daf1f4" class=""></path><circle cx="375.196" cy="369.885" r="129.303" fill="#ff7745" opacity="1" data-original="#eab14d" class=""></circle><path fill="#fe5517" d="M375.196 240.582c-5.034 0-9.998.298-14.882.858 64.401 7.382 114.421 62.068 114.421 128.446s-50.02 121.064-114.421 128.446c4.884.56 9.848.858 14.882.858 71.412 0 129.303-57.891 129.303-129.303 0-71.414-57.89-129.305-129.303-129.305z" opacity="1" data-original="#e49542" class=""></path><path fill="#f4fbff" d="M375.196 400.664c-8.284 0-15-6.716-15-15v-89.555c0-8.284 6.716-15 15-15s15 6.716 15 15v89.555c0 8.284-6.716 15-15 15zM375.196 458.662c-8.284 0-15-6.716-15-15v-9.555c0-8.284 6.716-15 15-15s15 6.716 15 15v9.555c0 8.284-6.716 15-15 15z" opacity="1" data-original="#f4fbff" class=""></path><g fill="#daf1f4"><path d="M375.196 281.109c-2.735 0-5.292.744-7.5 2.023 4.479 2.595 7.5 7.428 7.5 12.977v89.555c0 5.549-3.021 10.382-7.5 12.977a14.912 14.912 0 0 0 7.5 2.023c8.284 0 15-6.716 15-15v-89.555c0-8.284-6.716-15-15-15zM375.196 419.107c-2.735 0-5.292.744-7.5 2.023 4.479 2.595 7.5 7.428 7.5 12.977v9.555c0 5.549-3.021 10.382-7.5 12.977a14.912 14.912 0 0 0 7.5 2.023c8.284 0 15-6.716 15-15v-9.555c0-8.284-6.716-15-15-15z" fill="#daf1f4" opacity="1" data-original="#daf1f4" class=""></path></g><path d="M213.044 83.786a7.499 7.499 0 0 0-7.5 7.5v10.602c0 4.143 3.357 7.5 7.5 7.5s7.5-3.357 7.5-7.5V91.286c0-4.143-3.357-7.5-7.5-7.5zM300.701 141.303l7.497-7.496a7.5 7.5 0 0 0-10.605-10.607l-7.497 7.496a7.498 7.498 0 0 0-.001 10.606 7.498 7.498 0 0 0 10.606.001zM340.113 225.854c4.143 0 7.5-3.357 7.5-7.5s-3.357-7.5-7.5-7.5H329.51c-4.143 0-7.5 3.357-7.5 7.5s3.357 7.5 7.5 7.5zM208.629 337.906v10.603c0 4.143 3.357 7.5 7.5 7.5s7.5-3.357 7.5-7.5v-10.603c0-4.143-3.357-7.5-7.5-7.5s-7.5 3.357-7.5 7.5zM117.889 313.509a7.501 7.501 0 0 0 10.607 0l7.497-7.497a7.5 7.5 0 0 0-10.607-10.607l-7.497 7.497a7.5 7.5 0 0 0 0 10.607zM96.577 225.854c4.143 0 7.5-3.357 7.5-7.5s-3.357-7.5-7.5-7.5H85.975c-4.143 0-7.5 3.357-7.5 7.5s3.357 7.5 7.5 7.5zM125.387 141.303a7.5 7.5 0 0 0 10.606-.001 7.498 7.498 0 0 0-.001-10.606l-7.497-7.496a7.5 7.5 0 0 0-10.606.001 7.498 7.498 0 0 0 .001 10.606zM205.544 203.667l-13.646-13.287a7.498 7.498 0 0 0-10.605.141 7.499 7.499 0 0 0 .141 10.605l26.378 25.686c4.714 4.592 12.732 1.29 12.732-5.373v-70.977c0-4.143-3.357-7.5-7.5-7.5s-7.5 3.357-7.5 7.5z" fill="#000000" opacity="1" data-original="#000000" class=""></path><path d="M424.727 242.365a215.274 215.274 0 0 0 1.362-24.01c0-54.784-20.758-106.842-58.45-146.582a7.5 7.5 0 1 0-10.883 10.323c35.037 36.941 54.333 85.333 54.333 136.26 0 6.389-.322 12.837-.946 19.258a136.45 136.45 0 0 0-32.503-4.5c.439-4.924.686-9.861.686-14.759 0-91.137-74.146-165.282-165.282-165.282S47.763 127.218 47.763 218.355c0 18.367 3 36.423 8.917 53.665a7.502 7.502 0 0 0 9.529 4.659 7.499 7.499 0 0 0 4.659-9.528c-5.378-15.671-8.104-32.089-8.104-48.796 0-82.866 67.416-150.282 150.281-150.282 82.866 0 150.282 67.416 150.282 150.282 0 5.082-.273 10.212-.792 15.319-68.406 6.309-122.388 63.184-124.098 132.805a151.64 151.64 0 0 1-25.392 2.158c-53.52 0-103.418-28.824-130.223-75.226a7.5 7.5 0 0 0-12.988 7.504c28.624 49.55 82.145 82.722 143.211 82.722 8.652 0 17.316-.68 25.857-2.022a135.803 135.803 0 0 0 6.691 32.099 199.735 199.735 0 0 1-32.547 2.687C103.842 416.399 15 327.557 15 218.355S103.842 20.31 213.044 20.31c44.857 0 87.16 14.624 122.335 42.291a7.498 7.498 0 0 0 10.531-1.258 7.498 7.498 0 0 0-1.258-10.531C306.808 21.044 261.298 5.31 213.044 5.31 95.571 5.31 0 100.881 0 218.355c0 117.473 95.571 213.044 213.044 213.044 12.841 0 25.696-1.164 38.3-3.453 21.879 46.484 69.166 78.743 123.852 78.743 28.344 0 55.542-8.599 78.653-24.866a7.497 7.497 0 0 0 1.816-10.449 7.497 7.497 0 0 0-10.449-1.816c-20.571 14.479-44.783 22.132-70.021 22.132-66.339 0-121.804-53.76-121.804-121.804 0-67.162 54.641-121.803 121.804-121.803 67.162 0 121.803 54.641 121.803 121.803a121.63 121.63 0 0 1-30.68 80.813 7.5 7.5 0 0 0 .631 10.588 7.498 7.498 0 0 0 10.588-.631 136.615 136.615 0 0 0 34.461-90.771c.001-57.973-36.249-107.634-87.271-127.52z" fill="#000000" opacity="1" data-original="#000000" class=""></path><path d="M397.696 296.109c0-12.406-10.094-22.5-22.5-22.5s-22.5 10.094-22.5 22.5v89.555c0 12.406 10.094 22.5 22.5 22.5s22.5-10.094 22.5-22.5zm-15 89.555c0 4.136-3.364 7.5-7.5 7.5s-7.5-3.364-7.5-7.5v-89.555c0-4.136 3.364-7.5 7.5-7.5s7.5 3.364 7.5 7.5zM375.196 411.607c-12.406 0-22.5 10.094-22.5 22.5v9.555c0 12.406 10.094 22.5 22.5 22.5s22.5-10.094 22.5-22.5v-9.555c0-12.406-10.093-22.5-22.5-22.5zm7.5 32.055c0 4.136-3.364 7.5-7.5 7.5s-7.5-3.364-7.5-7.5v-9.555c0-4.136 3.364-7.5 7.5-7.5s7.5 3.364 7.5 7.5z" fill="#000000" opacity="1" data-original="#000000" class=""></path></g></svg>