<svg xmlns="http://www.w3.org/2000/svg" version="1.1" xmlns:xlink="http://www.w3.org/1999/xlink" width="16" height="16" x="0" y="0" viewBox="0 0 512 512" style="enable-background:new 0 0 512 512" xml:space="preserve" class=""><g><path d="M438.284 0H60C26.916 0 0 26.916 0 60v392c0 33.084 26.916 60 60 60h392c33.084 0 60-26.916 60-60V73.716L438.284 0zM120 40h230v118H120V40zm272 432H120V314h272v158zm80-20c0 11.028-8.972 20-20 20h-20V274H80v198H60c-11.028 0-20-8.972-20-20V60c0-11.028 8.972-20 20-20h20v158h310V40h31.716L472 90.284V452z" fill="#000000" opacity="1" data-original="#000000" class=""></path><path d="M274 59h40v79h-40z" fill="#000000" opacity="1" data-original="#000000" class=""></path></g></svg>