<svg xmlns="http://www.w3.org/2000/svg" xmlns:xlink="http://www.w3.org/1999/xlink" version="1.1" width="24" height="24" x="0" y="0" viewBox="0 0 682.667 682.667" style="enable-background:new 0 0 512 512" xml:space="preserve" class=""><g><defs fill="#000000"><clipPath id="a" clipPathUnits="userSpaceOnUse" fill="#000000"><path d="M0 512h512V0H0Z" fill="#ed6b22" opacity="1" data-original="#000000"/></clipPath></defs><g clip-path="url(#a)" transform="matrix(1.33333 0 0 -1.33333 0 682.667)"><path d="M0 0c-105.913 16.354-187 107.908-187 218.401 0 122.055 98.945 221 221 221 111.88 0 204.342-83.135 218.981-191" style="stroke-width:40;stroke-linecap:round;stroke-linejoin:round;stroke-miterlimit:10;stroke-dasharray:none;stroke-opacity:1" transform="translate(207 52.6)" fill="none" stroke="#ed6b22" stroke-width="40" stroke-linecap="round" stroke-linejoin="round" stroke-miterlimit="10" stroke-dasharray="none" stroke-opacity="" data-original="#000000" opacity="1" class=""/><path d="M0 0v-149l-74-75" style="stroke-width:40;stroke-linecap:round;stroke-linejoin:round;stroke-miterlimit:10;stroke-dasharray:none;stroke-opacity:1" transform="translate(241 420)" fill="none" stroke="#ed6b22" stroke-width="40" stroke-linecap="round" stroke-linejoin="round" stroke-miterlimit="10" stroke-dasharray="none" stroke-opacity="" data-original="#000000" opacity="1" class=""/><path d="M0 0c-9.869-53.485-56.747-94-113.087-94-63.513 0-115 51.487-115 115s51.487 115 115 115c10.741 0 21.138-1.473 31-4.227" style="stroke-width:40;stroke-linecap:round;stroke-linejoin:miter;stroke-miterlimit:10;stroke-dasharray:none;stroke-opacity:1" transform="translate(492 114)" fill="none" stroke="#ed6b22" stroke-width="40" stroke-linecap="round" stroke-linejoin="miter" stroke-miterlimit="10" stroke-dasharray="none" stroke-opacity="" data-original="#000000" opacity="1" class=""/><path d="m0 0-87.394-86.502c-5.866-5.807-15.322-5.782-21.158.054L-138-57" style="stroke-width:40;stroke-linecap:round;stroke-linejoin:round;stroke-miterlimit:10;stroke-dasharray:none;stroke-opacity:1" transform="translate(476.913 201)" fill="none" stroke="#ed6b22" stroke-width="40" stroke-linecap="round" stroke-linejoin="round" stroke-miterlimit="10" stroke-dasharray="none" stroke-opacity="" data-original="#000000" opacity="1" class=""/></g></g></svg>