<svg xmlns="http://www.w3.org/2000/svg" version="1.1" xmlns:xlink="http://www.w3.org/1999/xlink" width="16" height="16" x="0" y="0" viewBox="0 0 96 96" style="enable-background:new 0 0 512 512" xml:space="preserve" class=""><g><path d="M82 46v38a2 2 0 0 1-2 2H44V56a2 2 0 0 0-2-2H26a2 2 0 0 0-2 2v30h-8a2 2 0 0 1-2-2V46h.68c2.92 0 5.6-1.43 7.26-3.7.04.04.07.1.1.15A8.96 8.96 0 0 0 29.21 46h2.52c3.03 0 5.72-1.5 7.36-3.82.13.16.26.33.4.49A9.99 9.99 0 0 0 46.94 46h2.12a9.99 9.99 0 0 0 7.45-3.33c.14-.16.27-.33.4-.49A8.995 8.995 0 0 0 64.27 46h2.52c2.84 0 5.45-1.3 7.17-3.55.03-.05.06-.11.1-.15a9.016 9.016 0 0 0 7.26 3.7zM72 72V56a2 2 0 0 0-2-2H56a2 2 0 0 0-2 2v16a2 2 0 0 0 2 2h14a2 2 0 0 0 2-2zM21.899 10a4 4 0 0 0-3.655 2.375L8.2 34.97c-.724 1.635-.549 3.43.48 4.898.968 1.38 2.609 2.132 4.294 2.132h1.706c2.24 0 4.22-1.51 4.82-3.66l4.63-16.69L27.37 10zm9.621 0-7.13 25.66c-.42 1.52-.11 3.11.84 4.37.95 1.25 2.4 1.97 3.98 1.97h2.52c2.56 0 4.69-1.91 4.97-4.45L39.77 10zm20.69 0h-8.42l-2.82 25.34c-.18 1.69.36 3.39 1.5 4.66 1.15 1.29 2.74 2 4.47 2h2.12c1.73 0 3.32-.71 4.47-2a6.027 6.027 0 0 0 1.5-4.66zm12.27 0h-8.25l3.07 27.55A4.986 4.986 0 0 0 64.27 42h2.52c1.58 0 3.03-.72 3.98-1.97.95-1.26 1.26-2.85.84-4.37zm13.276 2.375A4 4 0 0 0 74.101 10H68.63l3.24 11.65 4.63 16.69c.6 2.15 2.58 3.66 4.82 3.66h1.706c1.686 0 3.327-.752 4.294-2.132 1.03-1.468 1.204-3.264.48-4.898z" fill="#ffffff" opacity="1" data-original="#ffffff" class=""></path></g></svg>