<svg xmlns="http://www.w3.org/2000/svg" version="1.1" xmlns:xlink="http://www.w3.org/1999/xlink" width="16" height="16" x="0" y="0" viewBox="0 0 512 512" style="enable-background:new 0 0 512 512" xml:space="preserve" class=""><g><path d="M356 429c-5.52 0-10 4.48-10 10s4.48 10 10 10 10-4.48 10-10-4.48-10-10-10zM156 429c-5.52 0-10 4.48-10 10s4.48 10 10 10 10-4.48 10-10-4.48-10-10-10z" fill="#000000" opacity="1" data-original="#000000" class=""></path><path d="M447.645 377.21c-11.257-17.424-26.726-31.269-44.847-40.21a9.947 9.947 0 0 0-5.678-2.613C384.013 328.823 370.197 326 356 326h-30v-26.383A114.708 114.708 0 0 0 361.894 243H366c22.056 0 40-17.944 40-40 0-10.452-4.034-19.976-10.622-27.11a30.8 30.8 0 0 0 1.833-1.679C402.879 168.543 406 161.01 406 153c0-13.163-8.526-24.366-20.343-28.396-3.533-45.984-35.806-85.28-80.241-97.596C302.783 13.256 291.434 0 276 0h-40c-15.434 0-26.783 13.256-29.416 27.008-44.431 12.315-76.701 51.604-80.24 97.582a29.893 29.893 0 0 0-11.555 7.199C109.121 137.457 106 144.99 106 153c0 9.163 4.134 17.375 10.63 22.882C110.038 183.016 106 192.544 106 203c0 22.056 17.944 40 40 40h4.078c5.052 18.357 14.631 35.21 27.994 49.131a112.945 112.945 0 0 0 7.928 7.478V326h-30c-14.198 0-28.014 2.823-41.12 8.386a9.95 9.95 0 0 0-5.677 2.613c-18.123 8.942-33.591 22.787-44.848 40.21C52.347 395.796 46 417.163 46 439v63c0 5.522 4.477 10 10 10h400c5.523 0 10-4.478 10-10v-63c0-21.837-6.347-43.204-18.355-61.79zM106 492H66v-53c0-30.417 15.582-59.571 40-76.878V492zm260-269h-.456c.298-3.327.456-6.666.456-10v-30c11.028 0 20 8.972 20 20s-8.972 20-20 20zM206 48.139V93c0 5.523 4.477 10 10 10s10-4.477 10-10V33c0-6.196 5.234-13 10-13h40c4.766 0 10 6.804 10 13v60c0 5.523 4.477 10 10 10s10-4.477 10-10V48.139c32.29 11.427 55.6 40.647 59.441 74.861H146.559C150.4 88.786 173.71 59.566 206 48.139zM146 223c-11.028 0-20-8.972-20-20s8.972-20 20-20v30c0 3.334.158 6.674.456 10H146zm0-60h-10c-5.514 0-10-4.486-10-10a9.93 9.93 0 0 1 2.931-7.068A9.933 9.933 0 0 1 136 143h240c5.514 0 10 4.486 10 10a9.93 9.93 0 0 1-2.931 7.068A9.93 9.93 0 0 1 376 163H146zm21.817 68.183c-.02-.109-.039-.217-.063-.324A92.231 92.231 0 0 1 166 213v-30h180v30c0 5.978-.593 11.981-1.754 17.855-.024.108-.043.217-.063.326a94.729 94.729 0 0 1-34.847 56.241C293.69 299.576 275.247 306 256 306s-37.69-6.424-53.351-18.589a92.671 92.671 0 0 1-10.145-9.126c-12.615-13.142-21.147-29.423-24.687-47.102zM246 492h-80v-23c0-5.523-4.477-10-10-10s-10 4.477-10 10v23h-20V351.474a84.642 84.642 0 0 1 20-4.882V409c0 5.523 4.477 10 10 10s10-4.477 10-10v-63h25.715L246 403v89zm-40-160v-18.626C221.431 321.669 238.427 326 256 326c17.574 0 34.571-4.332 50-12.625V332l-50 52.5-50-52.5zm180 160h-20v-23c0-5.523-4.477-10-10-10s-10 4.477-10 10v23h-80v-89l54.285-57H346v63c0 5.523 4.477 10 10 10s10-4.477 10-10v-62.408a84.656 84.656 0 0 1 20 4.883V492zm60 0h-40V362.121c24.418 17.307 40 46.461 40 76.879v53z" fill="#000000" opacity="1" data-original="#000000" class=""></path></g></svg>